<?xml version="1.0" encoding="UTF-8"?>
<svg xmlns="http://www.w3.org/2000/svg" xmlns:xlink="http://www.w3.org/1999/xlink" id="_图层_2" data-name="图层 2" viewBox="0 0 258.86 72.89">
  <defs>
    <style>
      .cls-1 {
        clip-path: url(#clippath);
      }

      .cls-2 {
        fill: none;
      }

      .cls-2, .cls-3, .cls-4, .cls-5, .cls-6, .cls-7, .cls-8, .cls-9, .cls-10, .cls-11, .cls-12, .cls-13, .cls-14 {
        stroke-width: 0px;
      }

      .cls-3 {
        opacity: .53;
      }

      .cls-3, .cls-5 {
        fill: #47c2ca;
      }

      .cls-4 {
        fill: #f2efe8;
      }

      .cls-6 {
        fill: #221e1f;
      }

      .cls-7 {
        fill: #dbd7ec;
      }

      .cls-8 {
        fill: #e0f2f3;
      }

      .cls-9 {
        fill: #b2dcbd;
      }

      .cls-10 {
        fill: #89d1cc;
      }

      .cls-11 {
        fill: #3188b2;
      }

      .cls-12 {
        fill: #9fb3cf;
      }

      .cls-13 {
        fill: #fff;
      }

      .cls-14 {
        fill: #000101;
      }
    </style>
    <clipPath id="clippath">
      <rect class="cls-2" width="58.66" height="68.35"></rect>
    </clipPath>
  </defs>
  <g id="Layer_1" data-name="Layer 1">
    <g>
      <g class="cls-1">
        <path class="cls-10" d="m19.56,51.27l-9.79-5.71v-11.39L0,28.48v22.79l29.33,17.08v-22.79l-9.77-5.69v11.39Z"></path>
        <path class="cls-12" d="m29.33,34.17l-9.77,5.71,9.77,5.69,9.79-5.69-9.79-5.71Z"></path>
        <path class="cls-12" d="m9.77,22.77L0,28.48l9.77,5.69,9.79-5.69-9.79-5.71Z"></path>
        <path class="cls-12" d="m48.89,22.77l-9.77,5.71,9.77,5.69,9.77-5.69-9.77-5.71Z"></path>
        <path class="cls-12" d="m29.33,11.39l-9.77,5.69,9.77,5.71,9.79-5.71-9.79-5.69Z"></path>
        <path class="cls-13" d="m9.77,34.17v11.39l9.79,5.71v-22.79"></path>
        <path class="cls-13" d="m29.33,22.79v11.39l9.79,5.69v-22.79"></path>
        <path class="cls-8" d="m48.89,34.18v11.39l-9.77,5.69v-22.79"></path>
        <path class="cls-8" d="m29.33,22.79v11.39l-9.77,5.69v-22.79"></path>
        <path class="cls-7" d="m29.33,0L0,17.08l29.33,17.1,29.33-17.1L29.33,0Z"></path>
        <path class="cls-4" d="m0,17.08v11.4l9.77,5.71v11.39l9.79,5.69v-11.39l9.77,5.71v-11.39L0,17.08Z"></path>
        <path class="cls-9" d="m29.33,34.18v11.39l9.79-5.71v11.39l9.77-5.69v-11.39l9.77-5.71v-11.4l-29.33,17.1Z"></path>
        <path class="cls-10" d="m19.56,51.27l9.77-5.69-9.77-5.71v11.39Z"></path>
        <path class="cls-11" d="m48.89,34.17v11.39l-9.77,5.71v-11.39.02-.02l-9.79,5.69v22.79l29.33-17.08v-22.79l-9.77,5.69Z"></path>
      </g>
      <g>
        <path class="cls-6" d="m250.24,25.56l-4.27,17.49-.1.42-.57,2.33-1.36,5.58-.15.63-.15-.63-2.03-8.33-.11-.44-.63-2.59-3.52-14.46h-8.61l3.17,13.02.48,1.98,2.91,11.95.43,1.74,1.4,5.74h10.98c0,.59-.12,1.15-.34,1.66-.21.51-.53.98-.92,1.37-.78.78-1.86,1.26-3.05,1.26h-15.11v8.61h6.06c4.34-.24,8.26-2.1,11.16-4.98.01-.01.03-.03.04-.04,2.15-2.14,3.73-4.85,4.5-7.88h.02l1.39-5.69h0s.44-1.83.44-1.83l6.57-26.91h-8.61Z"></path>
        <path class="cls-14" d="m118.95,16.93v26.12c-.07,4.64-1.98,8.82-5.03,11.87-1.06,1.06-2.26,1.98-3.56,2.73,0,0-.01.01-.02,0-2.53,1.46-5.45,2.3-8.58,2.3-9.5,0-17.2-7.7-17.2-17.2v-25.83h8.61v25.82c0,4.75,3.84,8.59,8.59,8.59,2.37,0,4.52-.96,6.07-2.51,1.5-1.51,2.45-3.57,2.51-5.86,0-.07,0-.15,0-.22s0-.15,0-.22v-25.6h8.61Z"></path>
        <path class="cls-14" d="m110.35,42.76c0,.07,0,.15,0,.22v-.44c0,.07,0,.15,0,.22Z"></path>
        <rect class="cls-14" x="170.67" y="16.88" width="8.61" height="43.04"></rect>
        <path class="cls-5" d="m144.83,47.02c0-.15,0-.29.02-.44v.88c-.01-.15-.02-.29-.02-.44Z"></path>
        <path class="cls-5" d="m149.43,51.31c-.09.01-.19.01-.29.01s-.2,0-.29-.01h.59Z"></path>
        <path class="cls-3" d="m118.96,42.76c0,.1,0,.2,0,.29v-.59c0,.1,0,.19,0,.29Z"></path>
        <path class="cls-3" d="m255.13,54.25c-.21-.55-.35-1.14-.43-1.74l.43,1.74Z"></path>
        <path class="cls-3" d="m136.24,50.93v.88c0-.15-.01-.29-.01-.44s0-.29.01-.44Z"></path>
        <path class="cls-3" d="m145.34,59.93c-.17.01-.35.02-.53.02s-.35,0-.53-.02h1.06Z"></path>
        <path class="cls-14" d="m145.28,51.31c-.09.01-.19.01-.29.01s-.2,0-.29-.01c-2.1-.14-3.78-1.78-3.99-3.86-.01-.15-.02-.29-.02-.44s0-.29.02-.44v-12.47h8.52v-8.61h-8.52v-8.62h-2.47c-1.57,3.2-3.65,6.11-6.14,8.6v.02h-.02c-2.52,2.51-5.45,4.61-8.68,6.18v2.43h8.7v17.7c.22,4.36,3.69,7.86,8.04,8.12h9.17v-8.61h-4.03Z"></path>
        <path class="cls-14" d="m220.37,51.39c-.09.01-.19.01-.29.01s-.2,0-.29-.01c-2.1-.14-3.78-1.78-3.99-3.86-.01-.15-.02-.29-.02-.44s0-.29.02-.44v-12.47h8.52v-8.61h-8.52v-8.62h-2.47c-1.57,3.2-3.65,6.11-6.14,8.6v.02h-.02c-2.52,2.51-5.45,4.61-8.68,6.18v2.43h8.7v17.7c.22,4.36,3.69,7.86,8.04,8.12h9.17v-8.61h-4.03Z"></path>
        <g>
          <path class="cls-14" d="m160.11,34.13h0c-1.54,0-3-.28-4.37-.77v26.57h8.61v-26.52c-1.33.46-2.75.73-4.24.73Z"></path>
          <rect class="cls-14" x="155.74" y="16.96" width="8.61" height="8.61" rx="4.3" ry="4.3"></rect>
        </g>
        <g>
          <path class="cls-14" d="m190.14,34.13h0c-1.54,0-3-.28-4.37-.77v26.57h8.61v-26.52c-1.33.46-2.75.73-4.24.73Z"></path>
          <rect class="cls-14" x="185.79" y="16.92" width="8.61" height="8.61" rx="4.3" ry="4.3"></rect>
        </g>
      </g>
    </g>
  </g>
</svg>
